<svg xmlns="http://www.w3.org/2000/svg" fill="#000000" viewBox="0 0 24 24">
  <path d="M12 .297c-6.63 0-12 5.373-12 12 0 5.304 3.438 9.8 8.205 11.385.6.113.82-.26.82-.577v-2.256c-3.338.724-4.033-1.416-4.033-1.416-.546-1.387-1.333-1.757-1.333-1.757-1.09-.748.082-.733.082-.733 1.205.084 1.84 1.236 1.84 1.236 1.07 1.835 2.809 1.305 3.495.998.108-.776.418-1.305.762-1.605-2.665-.305-5.467-1.333-5.467-5.933 0-1.311.469-2.382 1.236-3.222-.124-.304-.536-1.527.117-3.176 0 0 1.008-.322 3.3 1.23.957-.266 1.983-.399 3.003-.404 1.02.005 2.047.138 3.006.404 2.291-1.552 3.297-1.23 3.297-1.23.655 1.649.243 2.872.119 3.176.77.84 1.235 1.911 1.235 3.222 0 4.61-2.807 5.625-5.479 5.921.43.37.823 1.102.823 2.222v3.293c0 .319.218.694.825.576C20.565 22.092 24 17.592 24 12.297c0-6.627-5.373-12-12-12"/>
</svg>
