<svg xmlns="http://www.w3.org/2000/svg" fill="#E4405F" viewBox="0 0 24 24">
  <path d="M12 2.163c3.204 0 3.584.012 4.85.07 1.206.057 2.003.25 2.47.415.58.206.995.45 1.434.888.439.439.682.854.888 1.434.165.467.358 1.264.415 2.47.058 1.266.07 1.646.07 4.85s-.012 3.584-.07 4.85c-.057 1.206-.25 2.003-.415 2.47-.206.58-.45.995-.888 1.434-.439.439-.854.682-1.434.888-.467.165-1.264.358-2.47.415-1.266.058-1.646.07-4.85.07s-3.584-.012-4.85-.07c-1.206-.057-2.003-.25-2.47-.415-.58-.206-.995-.45-1.434-.888-.439-.439-.682-.854-.888-1.434-.165-.467-.358-1.264-.415-2.47C2.175 15.747 2.163 15.367 2.163 12s.012-3.584.07-4.85c.057-1.206.25-2.003.415-2.47.206-.58.45-.995.888-1.434.439-.439.854-.682 1.434-.888.467-.165 1.264-.358 2.47-.415C8.416 2.175 8.796 2.163 12 2.163zm0 1.838c-3.17 0-3.552.012-4.805.07-1.153.053-1.78.24-2.197.402-.553.215-.948.472-1.366.89-.418.418-.675.813-.89 1.366-.162.417-.349 1.044-.402 2.197-.058 1.253-.07 1.635-.07 4.805s.012 3.552.07 4.805c.053 1.153.24 1.78.402 2.197.215.553.472.948.89 1.366.418.418.813.675 1.366.89.417.162 1.044.349 2.197.402 1.253.058 1.635.07 4.805.07s3.552-.012 4.805-.07c1.153-.053 1.78-.24 2.197-.402.553-.215.948-.472 1.366-.89.418-.418.675-.813.89-1.366.162-.417.349-1.044.402-2.197.058-1.253.07-1.635.07-4.805s-.012-3.552-.07-4.805c-.053-1.153-.24-1.78-.402-2.197-.215-.553-.472-.948-.89-1.366-.418-.418-.813-.675-1.366-.89-.417-.162-1.044-.349-2.197-.402-1.253-.058-1.635-.07-4.805-.07zm0 3.905a5.932 5.932 0 1 1 0 11.864 5.932 5.932 0 0 1 0-11.864zm0 9.8a3.867 3.867 0 1 0 0-7.734 3.867 3.867 0 0 0 0 7.734zm6.406-10.845a1.44 1.44 0 1 1-2.881 0 1.44 1.44 0 0 1 2.881 0z"/>
</svg>
