<svg xmlns="http://www.w3.org/2000/svg" fill="#1DA1F2" viewBox="0 0 24 24">
  <path d="M23 2.999a9.429 9.429 0 0 1-2.828.828A4.93 4.93 0 0 0 22.338.362a9.86 9.86 0 0 1-3.127 1.2 4.916 4.916 0 0 0-8.384 4.48A13.944 13.944 0 0 1 1.671 1.15a4.915 4.915 0 0 0 1.523 6.556 4.897 4.897 0 0 1-2.229-.616v.06a4.924 4.924 0 0 0 3.946 4.827 4.935 4.935 0 0 1-2.224.085 4.927 4.927 0 0 0 4.6 3.417A9.873 9.873 0 0 1 0 21.539a13.945 13.945 0 0 0 7.548 2.212c9.056 0 14.012-7.514 14.012-14.028 0-.214-.004-.427-.014-.639A10.012 10.012 0 0 0 23 2.999z"/>
</svg>
